<mxfile host="app.diagrams.net" agent="Mozilla/5.0 (X11; Linux x86_64; rv:135.0) Gecko/20100101 Firefox/135.0" version="26.0.16">
  <diagram name="Page-1" id="58cdce13-f638-feb5-8d6f-7d28b1aa9fa0">
    <mxGraphModel dx="880" dy="469" grid="1" gridSize="10" guides="1" tooltips="1" connect="1" arrows="1" fold="1" page="1" pageScale="1" pageWidth="1100" pageHeight="850" background="none" math="0" shadow="0">
      <root>
        <mxCell id="0" />
        <mxCell id="1" parent="0" />
        <mxCell id="ntwNyBG2KZc1u4lstdlm-1" value="Iphone" style="swimlane;fontStyle=1;align=center;verticalAlign=top;childLayout=stackLayout;horizontal=1;startSize=26;horizontalStack=0;resizeParent=1;resizeParentMax=0;resizeLast=0;collapsible=1;marginBottom=0;whiteSpace=wrap;html=1;" vertex="1" parent="1">
          <mxGeometry x="80" width="160" height="204" as="geometry" />
        </mxCell>
        <mxCell id="ntwNyBG2KZc1u4lstdlm-3" value="" style="line;strokeWidth=1;fillColor=none;align=left;verticalAlign=middle;spacingTop=-1;spacingLeft=3;spacingRight=3;rotatable=0;labelPosition=right;points=[];portConstraint=eastwest;strokeColor=inherit;" vertex="1" parent="ntwNyBG2KZc1u4lstdlm-1">
          <mxGeometry y="26" width="160" height="8" as="geometry" />
        </mxCell>
        <mxCell id="ntwNyBG2KZc1u4lstdlm-4" value="&lt;pre&gt;+ tocar()&lt;br/&gt;+ pausar()&lt;br/&gt;+ selecionarMusica(String musica)&lt;br/&gt;+ ligar(String numero)&lt;br/&gt;+ atender()&lt;br/&gt;+ iniciarCorreioVoz()&lt;br/&gt;+ exibirPagina(String url)&lt;br/&gt;+ adicionarNovaAba()&lt;br/&gt;+ atualizarPagina()&lt;/pre&gt;" style="text;strokeColor=none;fillColor=none;align=left;verticalAlign=top;spacingLeft=4;spacingRight=4;overflow=hidden;rotatable=0;points=[[0,0.5],[1,0.5]];portConstraint=eastwest;whiteSpace=wrap;html=1;" vertex="1" parent="ntwNyBG2KZc1u4lstdlm-1">
          <mxGeometry y="34" width="160" height="170" as="geometry" />
        </mxCell>
        <mxCell id="ntwNyBG2KZc1u4lstdlm-5" value="&lt;p style=&quot;margin:0px;margin-top:4px;text-align:center;&quot;&gt;&lt;i&gt;&amp;lt;&amp;lt;Interface&amp;gt;&amp;gt;&lt;/i&gt;&lt;br&gt;ReprodutorMusical&lt;/p&gt;&lt;hr size=&quot;1&quot; style=&quot;border-style:solid;&quot;&gt;&lt;br&gt;&lt;hr size=&quot;1&quot; style=&quot;border-style:solid;&quot;&gt;&lt;p style=&quot;margin:0px;margin-left:4px;&quot;&gt;+ tocar(): void&lt;/p&gt;&lt;p style=&quot;margin:0px;margin-left:4px;&quot;&gt;+ pausar(): void&lt;/p&gt;&lt;p style=&quot;margin:0px;margin-left:4px;&quot;&gt;+ selecionarMusica(String): void&lt;/p&gt;" style="verticalAlign=top;align=left;overflow=fill;html=1;whiteSpace=wrap;" vertex="1" parent="1">
          <mxGeometry x="400" y="390" width="190" height="140" as="geometry" />
        </mxCell>
        <mxCell id="ntwNyBG2KZc1u4lstdlm-6" value="&lt;p style=&quot;margin:0px;margin-top:4px;text-align:center;&quot;&gt;&lt;i&gt;&amp;lt;&amp;lt;Interface&amp;gt;&amp;gt;&lt;/i&gt;&lt;/p&gt;&lt;p style=&quot;margin:0px;margin-top:4px;text-align:center;&quot;&gt;&lt;i&gt;NavegadorInternet&lt;/i&gt;&lt;/p&gt;&lt;hr size=&quot;1&quot; style=&quot;border-style:solid;&quot;&gt;&lt;br&gt;&lt;hr size=&quot;1&quot; style=&quot;border-style:solid;&quot;&gt;&lt;br&gt;&lt;pre&gt;&lt;font face=&quot;Helvetica&quot;&gt;+ exibirPagina(String url):void&lt;br&gt;+ adicionarNovaAba():void&lt;br&gt;+ atualizarPagina():void&lt;/font&gt;&lt;/pre&gt;" style="verticalAlign=top;align=left;overflow=fill;html=1;whiteSpace=wrap;" vertex="1" parent="1">
          <mxGeometry x="670" y="390" width="190" height="170" as="geometry" />
        </mxCell>
        <mxCell id="ntwNyBG2KZc1u4lstdlm-7" value="&lt;p style=&quot;margin:0px;margin-top:4px;text-align:center;&quot;&gt;&lt;i&gt;&amp;lt;&amp;lt;Interface&amp;gt;&amp;gt;&lt;/i&gt;&lt;br&gt;&lt;/p&gt;&lt;p style=&quot;margin:0px;margin-top:4px;text-align:center;&quot;&gt;AparelhoTelefonico&lt;/p&gt;&lt;hr size=&quot;1&quot; style=&quot;border-style:solid;&quot;&gt;&lt;br&gt;&lt;hr size=&quot;1&quot; style=&quot;border-style:solid;&quot;&gt;&lt;pre&gt;&lt;font style=&quot;font-size: 12px;&quot; face=&quot;Helvetica&quot;&gt;+ ligar(String numero):void&lt;br&gt;+ atender():void&lt;br&gt;+ iniciarCorreioVoz():void&lt;/font&gt;&lt;/pre&gt;" style="verticalAlign=top;align=left;overflow=fill;html=1;whiteSpace=wrap;" vertex="1" parent="1">
          <mxGeometry x="80" y="390" width="190" height="140" as="geometry" />
        </mxCell>
        <mxCell id="ntwNyBG2KZc1u4lstdlm-8" value="" style="html=1;labelBackgroundColor=#ffffff;jettySize=auto;orthogonalLoop=1;fontSize=14;rounded=0;jumpStyle=gap;edgeStyle=orthogonalEdgeStyle;startArrow=none;endArrow=block;endFill=0;dashed=1;strokeWidth=1;" edge="1" parent="1" source="ntwNyBG2KZc1u4lstdlm-7" target="ntwNyBG2KZc1u4lstdlm-4">
          <mxGeometry width="48" height="48" relative="1" as="geometry">
            <mxPoint x="130" y="360" as="sourcePoint" />
            <mxPoint x="140" y="210" as="targetPoint" />
            <Array as="points">
              <mxPoint x="60" y="425" />
              <mxPoint x="60" y="340" />
              <mxPoint x="100" y="340" />
              <mxPoint x="100" y="298" />
              <mxPoint x="90" y="298" />
            </Array>
          </mxGeometry>
        </mxCell>
        <mxCell id="ntwNyBG2KZc1u4lstdlm-9" value="Text" style="edgeLabel;html=1;align=center;verticalAlign=middle;resizable=0;points=[];" vertex="1" connectable="0" parent="ntwNyBG2KZc1u4lstdlm-8">
          <mxGeometry x="0.9948" y="3" relative="1" as="geometry">
            <mxPoint as="offset" />
          </mxGeometry>
        </mxCell>
        <mxCell id="ntwNyBG2KZc1u4lstdlm-10" value="" style="html=1;labelBackgroundColor=#ffffff;jettySize=auto;orthogonalLoop=1;fontSize=14;rounded=0;jumpStyle=gap;edgeStyle=orthogonalEdgeStyle;startArrow=none;endArrow=block;endFill=0;dashed=1;strokeWidth=1;entryX=0.781;entryY=1;entryDx=0;entryDy=0;entryPerimeter=0;exitX=-0.011;exitY=0.129;exitDx=0;exitDy=0;exitPerimeter=0;" edge="1" parent="1" source="ntwNyBG2KZc1u4lstdlm-5" target="ntwNyBG2KZc1u4lstdlm-4">
          <mxGeometry width="48" height="48" relative="1" as="geometry">
            <mxPoint x="360" y="470" as="sourcePoint" />
            <mxPoint x="478" y="230" as="targetPoint" />
          </mxGeometry>
        </mxCell>
        <mxCell id="ntwNyBG2KZc1u4lstdlm-11" value="" style="html=1;labelBackgroundColor=#ffffff;jettySize=auto;orthogonalLoop=1;fontSize=14;rounded=0;jumpStyle=gap;edgeStyle=orthogonalEdgeStyle;startArrow=none;endArrow=block;endFill=0;dashed=1;strokeWidth=1;exitX=0.421;exitY=0;exitDx=0;exitDy=0;exitPerimeter=0;entryX=1.006;entryY=0.335;entryDx=0;entryDy=0;entryPerimeter=0;" edge="1" parent="1" source="ntwNyBG2KZc1u4lstdlm-6" target="ntwNyBG2KZc1u4lstdlm-4">
          <mxGeometry width="48" height="48" relative="1" as="geometry">
            <mxPoint x="430" y="218" as="sourcePoint" />
            <mxPoint x="478" y="170" as="targetPoint" />
          </mxGeometry>
        </mxCell>
      </root>
    </mxGraphModel>
  </diagram>
</mxfile>
